<svg xmlns="http://www.w3.org/2000/svg" viewBox="0 0 100 100"><defs><style>.cls-1{fill:#fff;}.cls-2{fill:none;stroke:#075384;stroke-linecap:round;stroke-miterlimit:10;stroke-width:3px;}</style></defs><title>TMC_ICONS</title><g id="back" fill="#075384"><rect width="100" height="100" rx="10.15"/></g><g id="bereavement"><path class="cls-1" d="M45.23,10.39h9.54A22.82,22.82,0,0,1,77.59,33.21V86.46a0,0,0,0,1,0,0H22.41a0,0,0,0,1,0,0V33.21A22.82,22.82,0,0,1,45.23,10.39Z"/><path class="cls-1" d="M23.08,82.57H76.92a6.57,6.57,0,0,1,6.57,6.57v0a.47.47,0,0,1-.47.47H17a.47.47,0,0,1-.47-.47v0a6.57,6.57,0,0,1,6.57-6.57Z"/><line class="cls-2" x1="32.51" y1="31.28" x2="67.49" y2="31.28"/><line class="cls-2" x1="32.51" y1="42.35" x2="67.49" y2="42.35"/><line class="cls-2" x1="32.51" y1="53.43" x2="67.49" y2="53.43"/><path fill="#075384" d="M49.11,79.77,41.9,72.56a5.63,5.63,0,0,1-.21-7.85,5.51,5.51,0,0,1,7.87-.07l.42.41.28-.29a5.64,5.64,0,0,1,7.85-.2,5.52,5.52,0,0,1,.08,7.87l-7.34,7.34A1.23,1.23,0,0,1,49.11,79.77Z"/></g></svg>