<svg xmlns="http://www.w3.org/2000/svg" viewBox="0 0 100 100"><defs><style>.cls-1{fill:#fff;}</style></defs><title>TMC_ICONS</title><g id="back" fill="#075384"><rect width="100" height="100" rx="10.15"/></g><g id="careers_and_study" data-name="careers and study"><path class="cls-1" d="M12.71,38.1v33a1.93,1.93,0,0,0,1.9,2H46.08a.3.3,0,0,1,.29.3c.15,2,1.72,2.77,3.63,2.77s3.48-.82,3.63-2.77a.3.3,0,0,1,.29-.3H85.39a1.93,1.93,0,0,0,1.9-2v-33a1.93,1.93,0,0,0-1.9-2H14.61A1.93,1.93,0,0,0,12.71,38.1Z"/><path d="M80.91,69.73a3.73,3.73,0,0,1-1.32-.25A35.54,35.54,0,0,0,66.5,66.63a35.58,35.58,0,0,0-13.09,2.85,3.65,3.65,0,0,1-5-3.44V31.61a3.72,3.72,0,0,1,2.31-3.44c6.06-2.42,10.92-3.5,15.74-3.5s9.68,1.08,15.74,3.5a3.7,3.7,0,0,1,2.31,3.44V66A3.67,3.67,0,0,1,80.91,69.73Z" fill="#075384"/><path class="cls-1" d="M80.55,67c-10.43-4-17.67-4-28.09,0a1,1,0,0,1-1.37-1V31.61a1.06,1.06,0,0,1,.65-1c11.06-4.41,18.47-4.41,29.52,0a1.06,1.06,0,0,1,.65,1V66A1,1,0,0,1,80.55,67Z"/><path d="M47.9,69.73a3.67,3.67,0,0,1-1.31-.25A35.58,35.58,0,0,0,33.5,66.63a35.54,35.54,0,0,0-13.09,2.85,3.73,3.73,0,0,1-1.32.25A3.67,3.67,0,0,1,15.45,66V31.61a3.7,3.7,0,0,1,2.31-3.44c6.06-2.42,10.91-3.5,15.74-3.5s9.68,1.08,15.74,3.5a3.72,3.72,0,0,1,2.31,3.44V66A3.68,3.68,0,0,1,47.9,69.73Z" fill="#075384"/><path class="cls-1" d="M47.54,67c-10.42-4-17.66-4-28.09,0a1,1,0,0,1-1.36-1V31.61a1.06,1.06,0,0,1,.65-1c11.05-4.41,18.46-4.41,29.52,0a1.06,1.06,0,0,1,.65,1V66A1,1,0,0,1,47.54,67Z"/></g></svg>