<svg xmlns="http://www.w3.org/2000/svg" viewBox="0 0 100 100"><defs><style>.cls-1{fill:#fff;}.cls-2{fill:none;stroke:#fff;stroke-miterlimit:10;stroke-width:3px;}</style></defs><title>TMC_ICONS</title><g id="back" fill="#075384"><rect width="100" height="100" rx="10.15"/></g><g id="care"><path class="cls-1" d="M44.56,69.72l13.64-2.4a2.81,2.81,0,0,0-.49-5.58H44.91a5.79,5.79,0,0,1-2.1-.39L31,56.74a14.23,14.23,0,0,0-7.16-.84L15,57.14a2.6,2.6,0,0,0-2.24,2.57V75.3a2.58,2.58,0,0,0,2.08,2.53L43.64,83.7a18.59,18.59,0,0,0,3.65.36h3a18.37,18.37,0,0,0,6.94-1.36L85.09,71.28a3.44,3.44,0,0,0-2.52-6.4L61.09,73a14.28,14.28,0,0,1-7.24.74l-1.2-.19-3-.47-3.79-.61-3.67-.58L41,71.68l-.62-.1c-.23,0-.61-.11-.39-.46.06-.1.19-.12.3-.16l.61-.17,2.17-.63Z"/><path class="cls-2" d="M48.26,49.44,33.84,35a11.27,11.27,0,0,1-.41-15.7,11,11,0,0,1,15.74-.15L50,20l.57-.58a11.27,11.27,0,0,1,15.7-.4,11,11,0,0,1,.15,15.73L51.74,49.44A2.46,2.46,0,0,1,48.26,49.44Z"/></g></svg>