<svg xmlns="http://www.w3.org/2000/svg" viewBox="0 0 100 100"><defs><style>.cls-1{fill:#fff;}</style></defs><title>TMC_ICONS</title><g id="back" fill="#075384"><rect width="100" height="100" rx="10.15"/></g><g id="childcare"><path class="cls-1" d="M79.22,49.31c-2.77-6-5.62-12-8.34-18a4,4,0,0,0-4.31-2.63q-3.28.11-6.55.1c-2.24,0-4.49,0-6.73-.1a4.35,4.35,0,0,0-4.7,2.91c-2.74,6.12-5.69,12.15-8.52,18.24-1.17,2.52-.7,4,1.47,5s3.49.29,4.73-2.26c.91-1.88,1.8-3.78,2.69-5.67.55,11.63.55,23,.57,34.47a19,19,0,0,0,.27,3.85c.46,2.3,1.83,3.8,4.32,3.91s4.14-1.33,4.76-3.74a13.76,13.76,0,0,0,.34-3.27c0-7.1,0-14.2,0-21.29a24.47,24.47,0,0,1,.3-2.56h0l.84.1V82.63c0,4.17,1.66,6.46,4.71,6.52,3.23.06,4.83-2.1,4.84-6.6q0-11.34,0-22.67V47l.62-.12c.86,1.81,1.72,3.61,2.59,5.42,1.34,2.81,2.72,3.55,4.82,2.58S80.59,52.26,79.22,49.31Z"/><path class="cls-1" d="M60.05,10.87l-.32,0a8.19,8.19,0,0,0-8.38,8.4,8.25,8.25,0,0,0,8.36,8.43H60a8.28,8.28,0,0,0,8.22-8.28A8.21,8.21,0,0,0,60.05,10.87Z"/><path class="cls-1" d="M34.84,56c-1.2,0-2.39,0-3.59,0s-2.46,0-3.69,0A2.37,2.37,0,0,0,25,57.61c-1.5,3.35-3.11,6.66-4.66,10-.65,1.38-.39,2.2.8,2.76s1.91.16,2.59-1.24c.5-1,1-2.07,1.47-3.11.31,6.37.3,12.63.31,18.89a10.5,10.5,0,0,0,.15,2.1A2.38,2.38,0,0,0,28,89.14a2.41,2.41,0,0,0,2.61-2,7.75,7.75,0,0,0,.18-1.8c0-3.88,0-7.77,0-11.66a11.11,11.11,0,0,1,.16-1.4h0l.46.06V85.58c0,2.28.91,3.53,2.58,3.57s2.65-1.15,2.65-3.61c0-4.14,0-8.28,0-12.43V56.69A2.21,2.21,0,0,0,34.84,56Z"/><path class="cls-1" d="M41.77,55.43C40.25,58.72,38.69,62,37.2,65.3a2.79,2.79,0,0,1-.51.77V56.7l.34.07c.47-1,.94-2,1.42-3,.73-1.54,1.49-1.95,2.64-1.41S42.52,53.82,41.77,55.43Z"/><path class="cls-1" d="M31.08,55.48h.17a4.6,4.6,0,0,0,0-9.2h-.18a4.61,4.61,0,0,0,0,9.22Z"/></g></svg>