<svg xmlns="http://www.w3.org/2000/svg" viewBox="0 0 100 100"><defs><style>.cls-1,.cls-2{fill:none;stroke:#fff;stroke-miterlimit:10;stroke-width:3px;}.cls-2{stroke-linecap:round;}</style></defs><title>TMC_ICONS</title><g id="back" fill="#075384"><rect width="100" height="100" rx="10.15"/></g><g id="disability"><path class="cls-1" d="M38.12,50.68a15,15,0,1,1-7.59,1.69"/><circle class="cls-1" cx="39.42" cy="25.02" r="5.73"/><path class="cls-2" d="M38.12,45.86v1.49c0,5.44,0,10.89,0,16.34a10,10,0,0,1-.26,2.51,3.38,3.38,0,0,1-3.65,2.87,3.34,3.34,0,0,1-3.32-3,15.31,15.31,0,0,1-.21-2.95c0-5.74,0-11.48-.13-17.26V40.92a5.25,5.25,0,0,1,1.15-3.26h0a5.22,5.22,0,0,1,4.08-2h8.41A8.88,8.88,0,0,1,52.3,41l5.42,12.33a1.31,1.31,0,0,0,1.2.79H65A4.09,4.09,0,0,1,69,57.61l2.35,15.63A2.09,2.09,0,0,0,73.45,75h4.08"/><line class="cls-2" x1="22.47" y1="43.53" x2="30.53" y2="43.53"/></g></svg>