<svg xmlns="http://www.w3.org/2000/svg" viewBox="0 0 100 100"><defs><style>.cls-1{fill=#075384;}.cls-2{fill:#fff;}</style></defs><title>TMC_ICONS</title><g id="back" fill="#075384"><rect width="100" height="100" rx="10.15"/></g><g id="money_icon" data-name="money icon"><path class="cls-1" d="M53.33,21.5h0Z"/></g><g id="domestic_violemce" data-name="domestic violemce"><path class="cls-2" d="M90.37,41.7,72.06,28.16,52.15,13.44a3.63,3.63,0,0,0-4.3,0L27.94,28.16,9.63,41.7a1.53,1.53,0,0,0,.91,2.77h6.34V84.69a2.58,2.58,0,0,0,2.58,2.57H80.54a2.58,2.58,0,0,0,2.58-2.57V44.47h6.34A1.53,1.53,0,0,0,90.37,41.7ZM48.76,76.16v3.75L34.85,66.33a10.22,10.22,0,0,1,0-14.67A10.8,10.8,0,0,1,48.16,50.3l2.12,6.79L45.08,64l6,6.81Zm16.39-9.83L51.24,79.91V76.67l2.7-6.29-5.66-6.47L53,57.57,51,50.93a10.79,10.79,0,0,1,14.19.73A10.22,10.22,0,0,1,65.15,66.33Z" /></g></svg>