<svg xmlns="http://www.w3.org/2000/svg" viewBox="0 0 100 100"><defs><style>.cls-1{fill:#1d19bf;}.cls-2{fill:#fff;}</style></defs><title>TMC_ICONS</title><g id="back" fill="#075384"><rect width="100" height="100" rx="10.15"/></g><g id="money_icon" data-name="money icon"><path class="cls-1" d="M53.33,21.5h0Z"/></g><g id="drugs_icon" data-name="drugs icon"><path class="cls-2" d="M34.53,35.7A10.65,10.65,0,0,1,45.16,46.34v9.27H22.89V46.34A10.65,10.65,0,0,1,33.52,35.7h1m0-3.07h-1a13.7,13.7,0,0,0-13.7,13.71V58.68H48.23V46.34a13.7,13.7,0,0,0-13.7-13.71Z"/><path class="cls-2" d="M19.82,58.68V71a13.7,13.7,0,0,0,13.7,13.7h1A13.7,13.7,0,0,0,48.23,71V58.68Z"/><path class="cls-2" d="M73,30.46V15.28H61.74V30.46a10.31,10.31,0,0,0-7.19,9.83V81.21a3.08,3.08,0,0,0,3.09,3.08H77.1a3.08,3.08,0,0,0,3.08-3.08V40.29A10.31,10.31,0,0,0,73,30.46Zm3.76,37.27a9.39,9.39,0,0,1-9.39,9.39h0A9.38,9.38,0,0,1,58,67.73V47.8a9.38,9.38,0,0,1,9.39-9.39h0a9.39,9.39,0,0,1,9.39,9.39Z"/></g></svg>