<svg xmlns="http://www.w3.org/2000/svg" viewBox="0 0 100 100"><defs><style>.cls-1{fill:none;stroke:#fff;stroke-linecap:round;stroke-miterlimit:10;stroke-width:3px;}</style></defs><title>TMC_ICONS</title><g id="back" fill="#075384"><rect width="100" height="100" rx="10.15"/></g><g id="health"><path class="cls-1" d="M27.38,50.61c1.49-1.26,3.35-2.53,5.41-2.26,2.31.3,3.28,2.18,5,3.39a3.69,3.69,0,0,0,2.71.72,4.55,4.55,0,0,0,2.79-2.15c1.61-2.38,3.25-4.75,4.94-7.07,1.33-1.81,3.1-3.08,5.46-2.32,4.21,1.36,4.91,7,7,10.27a16.6,16.6,0,0,0,6.91,6.56c4.09,1.82,7.39-.06,10.06-3.23,3-3.55,5.73-7.55,7-12.08,1.51-5.59-.29-11.41-3.86-15.84a21.09,21.09,0,0,0-1.63-1.78c-7.84-7.56-20.48-7-28.18.72l-1,1-1.49-1.49a19.8,19.8,0,0,0-28.25.26c-7.56,7.85-7,20.48.72,28.18L46.8,79.43a4.41,4.41,0,0,0,6.23,0L66.76,65.7"/></g></svg>