<svg xmlns="http://www.w3.org/2000/svg" viewBox="0 0 100 100"><defs><style>.cls-1{fill:none;stroke:#fff;stroke-linecap:round;stroke-miterlimit:10;stroke-width:3px;}.cls-2{fill:#fff;}</style></defs><title>TMC_ICONS</title><g id="back" fill="#075384"><rect width="100" height="100" rx="10.15"/></g><g id="housing"><path class="cls-1" d="M59.41,40.65,48,32.23,35.63,23.08a2.24,2.24,0,0,0-2.67,0L20.58,32.23,9.19,40.65a1,1,0,0,0,.56,1.72H13.7v24.4a1.6,1.6,0,0,0,1.6,1.6h38a1.6,1.6,0,0,0,1.6-1.6V42.37h4A1,1,0,0,0,59.41,40.65Z"/><path class="cls-2" d="M90.11,47.73h-4.5v27.8a1.83,1.83,0,0,1-1.83,1.83H68.19a1.13,1.13,0,0,1-1.13-1.12V69.49a5,5,0,0,0-4.94-4.94,4.94,4.94,0,0,0-4.93,4.94v6.75a1.12,1.12,0,0,1-1.12,1.12H40.47a1.83,1.83,0,0,1-1.83-1.83V47.73h-4.5a1.09,1.09,0,0,1-.65-2l13-9.6L60.6,25.73a2.57,2.57,0,0,1,3,0L77.77,36.16l13,9.6A1.09,1.09,0,0,1,90.11,47.73Z"/></g></svg>