<svg xmlns="http://www.w3.org/2000/svg" viewBox="0 0 100 100"><defs><style>.cls-1{fill:#fff;}</style></defs><title>TMC_ICONS</title><g id="back" fill="#075384"><rect width="100" height="100" rx="10.15"/></g><g id="legal"><path class="cls-1" d="M51.5,34.29h-3V31.55a12.74,12.74,0,0,0-25.47,0v2.74H20V31.55a15.74,15.74,0,0,1,31.47,0Z"/><path class="cls-1" d="M21.45,56.53a17.34,17.34,0,0,1-10.7-4l-.47-.38-.08-.61a9,9,0,0,1,1.51-6.17l9.82-14.61,9.83,14.61a8.91,8.91,0,0,1,1.49,6.31l-.09.64-.52.37A18.33,18.33,0,0,1,21.45,56.53Zm-8.32-6c3.81,2.84,9.64,4.9,16.81.07A6,6,0,0,0,28.87,47L21.53,36.13,14.2,47A6,6,0,0,0,13.13,50.56Z"/><path class="cls-1" d="M12.06,51.63a.19.19,0,0,0-.3.18c.75,3.88,4.59,7.15,9.77,7.15s9-3.22,9.76-7.06a.18.18,0,0,0-.29-.18C22.68,57.46,15.93,54.58,12.06,51.63Z"/><path class="cls-1" d="M21.53,60.46c-5.58,0-10.31-3.52-11.24-8.37A1.68,1.68,0,0,1,13,50.44h0c3.75,2.85,9.76,5.17,17.19.05a1.68,1.68,0,0,1,2.61,1.71C31.78,57,27.06,60.46,21.53,60.46Zm-6-5.12a9,9,0,0,0,6,2.12,9,9,0,0,0,6.09-2.19A15.67,15.67,0,0,1,15.52,55.34Zm-4.37-2.52h0Z"/><path class="cls-1" d="M51.5,74.29h-3V31.55a15.74,15.74,0,0,1,31.47,0v2.74H77V31.55a12.74,12.74,0,0,0-25.47,0Z"/><path class="cls-1" d="M78.55,56.53a18.33,18.33,0,0,1-10.79-3.85l-.52-.37-.09-.64a8.91,8.91,0,0,1,1.49-6.31l9.83-14.61,9.82,14.61a9,9,0,0,1,1.51,6.17l-.08.61-.47.38A17.34,17.34,0,0,1,78.55,56.53Zm-8.49-5.9c7.17,4.83,13,2.77,16.81-.07A6,6,0,0,0,85.8,47L78.47,36.13,71.13,47A6,6,0,0,0,70.06,50.63Z"/><path class="cls-1" d="M87.94,51.63a.19.19,0,0,1,.3.18C87.49,55.69,83.65,59,78.47,59s-9-3.22-9.76-7.06a.18.18,0,0,1,.29-.18C77.32,57.46,84.07,54.58,87.94,51.63Z"/><path class="cls-1" d="M78.47,60.46c-5.53,0-10.25-3.47-11.23-8.26a1.68,1.68,0,0,1,2.61-1.71c7.43,5.12,13.44,2.8,17.19-.05a1.64,1.64,0,0,1,1.9-.09,1.66,1.66,0,0,1,.77,1.74C88.78,56.94,84.05,60.46,78.47,60.46Zm-6.09-5.19a9.57,9.57,0,0,0,12.1.07A15.67,15.67,0,0,1,72.38,55.27Zm16.47-2.45h0Z"/><rect class="cls-1" x="30.2" y="73.01" width="39.6" height="6.1" rx="1.68"/></g></svg>