<svg xmlns="http://www.w3.org/2000/svg" viewBox="0 0 100 100"><defs><style>.cls-1{fill:#fff;}</style></defs><title>TMC_ICONS</title><g id="back" fill="#075384"><rect width="100" height="100" rx="10.15"/></g><g id="mental_health" data-name="mental health"><path class="cls-1" d="M80.17,47.75l-4.25-6.37a7.08,7.08,0,0,1-1.18-3.92V36.14a27.73,27.73,0,1,0-55.46.33V50.63a32.29,32.29,0,0,0,5.41,17.9h0a9,9,0,0,1,1.52,5V84.66s15.6,15.6,31.19,0v-9a1.13,1.13,0,0,1,1.35-1.11l1.86.37A11.8,11.8,0,0,0,74.74,63.32V56.93l5-5A3.3,3.3,0,0,0,80.17,47.75ZM59.92,61.24h-.13a3.89,3.89,0,0,1-3-5.62l3.44-6.87,3.42,6.86A3.89,3.89,0,0,1,59.92,61.24ZM67.4,42a9.65,9.65,0,0,1-7.06,2.6,24.57,24.57,0,0,1-9.68-2.42,1,1,0,0,1-.45-1.34,1,1,0,0,1,1.35-.45c.09,0,9.8,4.81,14.42.19A1,1,0,0,1,67.4,42Z"/></g></svg>