<svg xmlns="http://www.w3.org/2000/svg" viewBox="0 0 100 100"><defs><style>.cls-1{fill:#1d19bf;}.cls-2{fill:#fff;}</style></defs><title>TMC_ICONS</title><g id="back" fill="#075384"><rect width="100" height="100" rx="10.15"/></g><g id="money_icon" data-name="money icon"><path class="cls-1" d="M53.33,21.5h0Z"/><path class="cls-2" d="M65.11,13.05,59.34,9.34v0l.23-.68.09-.25.53-1.62a1.4,1.4,0,0,0-1-1.81A46.89,46.89,0,0,0,50,4.16,46.89,46.89,0,0,0,40.82,5a1.4,1.4,0,0,0-1,1.81l.53,1.62c.4.1.09.25.09.25l.37,1.09L35,13.1a2,2,0,0,0-.49,3.18l8.83,9.34c.78-.24,1.71-.45,2.55-.62v0a26.91,26.91,0,0,1,4.75-.42,26.32,26.32,0,0,1,3.48.22h0a25.47,25.47,0,0,1,2.71.52l8.67-9.18A2,2,0,0,0,65.11,13.05ZM58.4,8.63a.1.1,0,0,1-.07,0h.07Z"/><path class="cls-2" d="M82.22,56.83a48,48,0,0,0-9-12.47l-6-6-.69-.69-8.1-8.1a25.68,25.68,0,0,0-16.9,0l-8.1,8.1-.69.69-6,6a48,48,0,0,0-9,12.47,35.82,35.82,0,0,0,0,32,12.6,12.6,0,0,0,11.28,7H70.94a12.58,12.58,0,0,0,11.28-7,35.82,35.82,0,0,0,0-32ZM60.07,80.51H39.93V76.46a7.85,7.85,0,0,0,3.75-6.56,11.27,11.27,0,0,0-.3-2.41H39.93V63.35h2a14.93,14.93,0,0,1-1.12-5.18c0-5.91,4.61-9.36,10.61-9.36a14.08,14.08,0,0,1,7.46,2v5.43a12.9,12.9,0,0,0-7.12-2.5c-3.19,0-5.48,1.73-5.48,4.75a17.9,17.9,0,0,0,1.12,4.83h7.68v4.14H48.64a13.08,13.08,0,0,1,.22,2.24,7.85,7.85,0,0,1-2.42,5.82v.09H60.07Z"/></g></svg>