<svg xmlns="http://www.w3.org/2000/svg" viewBox="0 0 100 100"><defs><style>.cls-1{fill:#fff;}</style></defs><title>TMC_ICONS</title><g id="back" fill="#075384"><rect width="100" height="100" rx="10.15"/></g><g id="relationships"><path class="cls-1" d="M55.47,29.86A11.91,11.91,0,0,1,66.31,37.3l.4,1,1.13,2.78,2.78-1.14L72,39.34a11.45,11.45,0,0,1,4.28-.84,11.26,11.26,0,0,1,10.56,7.24,11.63,11.63,0,0,1-6.72,14.74L56.72,70a1.34,1.34,0,0,1-.52.1,1.37,1.37,0,0,1-1.28-.86L45.18,45.42a11.31,11.31,0,0,1,6.4-14.84,10.73,10.73,0,0,1,3.89-.72m0-3a13.64,13.64,0,0,0-5,.93A14.31,14.31,0,0,0,42.4,46.55l9.74,23.87a4.4,4.4,0,0,0,5.71,2.4l23.43-9.57c7.3-3,11.23-11.24,8.39-18.59A14.33,14.33,0,0,0,76.31,35.5a14.14,14.14,0,0,0-5.41,1.07l-1.41.57-.4-1a14.89,14.89,0,0,0-13.62-9.31Z"/><path class="cls-1" d="M42.15,72.82,18.72,63.25c-7.3-3-11.23-11.24-8.39-18.59A14.32,14.32,0,0,1,29.1,36.57l1.41.57.4-1c3-7.3,11.25-11.23,18.6-8.38A14.31,14.31,0,0,1,57.6,46.55L47.86,70.42A4.38,4.38,0,0,1,42.15,72.82Z"/></g></svg>