<svg xmlns="http://www.w3.org/2000/svg" viewBox="0 0 100 100"><defs><style>.cls-1,.cls-2{fill:none;stroke:#fff;stroke-miterlimit:10;stroke-width:3px;}.cls-2{stroke-linecap:round;}</style></defs><title>TMC_ICONS</title><g id="back" fill="#075384"><rect width="100" height="100" rx="10.15"/></g><g id="self_harm" data-name="self harm"><path class="cls-1" d="M78,22h0a13.19,13.19,0,0,1,0,18.65L68.66,50,50,31.34,59.33,22A13.19,13.19,0,0,1,78,22Z"/><rect class="cls-1" x="36.81" y="36.81" width="26.38" height="26.38" transform="translate(-20.71 50) rotate(-45)"/><path class="cls-1" d="M31.34,50,50,68.66,40.67,78A13.19,13.19,0,0,1,22,78h0a13.19,13.19,0,0,1,0-18.65Z"/><line class="cls-2" x1="55.28" y1="44.72" x2="44.72" y2="55.28"/><line class="cls-2" x1="55.28" y1="55.28" x2="44.72" y2="44.72"/></g></svg>