<svg xmlns="http://www.w3.org/2000/svg" xmlns:xlink="http://www.w3.org/1999/xlink" viewBox="0 0 100 100"><defs><style>.cls-1{fill:none;}.cls-2{fill:#1f5183;}.cls-3{clip-path:url(#clip-path);}.cls-4{fill:#ff1d25;}.cls-5{fill:#fe941d;}.cls-6{fill:#ff0;}.cls-7{fill:#06bd02;}.cls-8{fill:#011a98;}.cls-9{fill:#760188;}.cls-10{fill:#010101;}.cls-11{fill:#603814;}.cls-12{fill:#75d6ec;}.cls-13{fill:#feafc7;}.cls-14{fill:#fff;}</style><clipPath id="clip-path"><rect class="cls-1" x="10.68" y="24.82" width="78.64" height="50.36" rx="4.42"/></clipPath></defs><g id="SC"><rect class="cls-2" width="100" height="100" rx="10.15"/></g><g id="sexuality-2" data-name="sexuality"><g class="cls-3"><rect class="cls-4" x="-5.75" y="24.82" width="95.07" height="8.39"/><rect class="cls-5" x="-5.75" y="33.21" width="95.07" height="8.39"/><rect class="cls-6" x="-5.75" y="41.61" width="95.07" height="8.39"/><rect class="cls-7" x="-5.75" y="50" width="95.07" height="8.39"/><rect class="cls-8" x="-5.75" y="58.39" width="95.07" height="8.39"/><rect class="cls-9" x="-5.75" y="66.79" width="95.07" height="8.39"/><polygon class="cls-10" points="-19.97 -19.3 52.28 50 -19.97 119.3 -19.97 -19.3"/><polygon class="cls-11" points="-14.75 -7.73 45.43 50 -14.75 107.72 -14.75 -7.73"/><polygon class="cls-12" points="-9.53 3.85 38.59 50 -9.53 96.15 -9.53 3.85"/><polygon class="cls-13" points="-4.31 15.43 31.74 50 -4.31 84.57 -4.31 15.43"/><polygon class="cls-14" points="0.91 27 24.89 50 0.91 73 0.91 27"/></g></g></svg>