<svg id="Group_2167" data-name="Group 2167" xmlns="http://www.w3.org/2000/svg" xmlns:xlink="http://www.w3.org/1999/xlink" width="100" height="100" viewBox="0 0 100 100">
  <defs>
    <clipPath id="clip-path">
      <rect id="Rectangle_1839" data-name="Rectangle 1839" width="100" height="100" fill="none" stroke="#707070" stroke-width="5"/>
    </clipPath>
  </defs>
  <g id="Group_2146" data-name="Group 2146" transform="translate(0 0)" clip-path="url(#clip-path)">
    <path id="Path_1651" data-name="Path 1651" d="M61.1,15.322c19.606,0,35.5,12.431,35.5,27.763v7.323H.5V43.085C.5,27.753,16.392,15.322,36,15.322" transform="translate(1.45 47.54)" fill="none" stroke="#fff" stroke-linecap="round" stroke-miterlimit="10" stroke-width="5"/>
    <path id="Path_1652" data-name="Path 1652" d="M23.481,61.311A31.72,31.72,0,0,1,5.1,32.148C5.1,14.671,18.574.5,35.2.5S65.287,14.671,65.287,32.148a31.736,31.736,0,0,1-18.12,29.043" transform="translate(14.806 1.552)" fill="none" stroke="#fff" stroke-linecap="round" stroke-miterlimit="10" stroke-width="5"/>
    <path id="Path_1653" data-name="Path 1653" d="M41.392,7.763a9.137,9.137,0,0,0-13.38,0h0L26.194,9.675,24.376,7.763a9.147,9.147,0,0,0-13.392-.008,10.327,10.327,0,0,0,0,14.085l1.814,1.908L26.186,37.824,39.57,23.755l1.818-1.912A10.321,10.321,0,0,0,41.4,7.767Z" transform="translate(23.812 15.028)" fill="none" stroke="#fff" stroke-linecap="round" stroke-linejoin="round" stroke-width="5"/>
  </g>
</svg>
