<svg xmlns="http://www.w3.org/2000/svg" xmlns:xlink="http://www.w3.org/1999/xlink" width="100" height="100" viewBox="0 0 100 100">
  <defs>
    <clipPath id="clip-path">
      <rect id="Rectangle_1838" data-name="Rectangle 1838" width="100" height="100" fill="none" stroke="#707070" stroke-width="5"/>
    </clipPath>
  </defs>
  <g id="Group_2144" data-name="Group 2144" clip-path="url(#clip-path)">
    <path id="Path_1648" data-name="Path 1648" d="M86.837,80.853c-.023,0-.023.024,0,0-.878.961-1.784,1.831-2.755,2.792a58.957,58.957,0,0,0-4.356,4.575,10.819,10.819,0,0,1-8.484,3.634c-.337,0-.7,0-1.037-.024a48.522,48.522,0,0,1-17.6-5.352A100.455,100.455,0,0,1,19.311,60.043,93.113,93.113,0,0,1,3.063,32.622,33.024,33.024,0,0,1,.536,18.307a10.569,10.569,0,0,1,3.1-6.791l7.7-7.779a5.1,5.1,0,0,1,3.432-1.623,4.815,4.815,0,0,1,3.3,1.6l.066.067c1.377,1.3,2.685,2.654,4.062,4.093.7.733,1.42,1.462,2.143,2.219l6.159,6.242a4.4,4.4,0,0,1,.987,6.089,4.45,4.45,0,0,1-.987,1c-.654.663-1.284,1.325-1.934,1.96-1.9,1.96-3.7,3.8-5.664,5.579-.046.047-.089.067-.112.114a4.707,4.707,0,0,0-1.161,5.191l.066.2a50.3,50.3,0,0,0,7.289,12.052l.023.024a83.163,83.163,0,0,0,20.04,18.478,29.918,29.918,0,0,0,2.774,1.533,20.148,20.148,0,0,1,2.232,1.211c.089.047.182.114.271.161a4.575,4.575,0,0,0,5.664-1L67.671,61.1a5.078,5.078,0,0,1,3.408-1.713,4.564,4.564,0,0,1,3.25,1.67l.046.047L86.81,73.7a4.566,4.566,0,0,1,.824,6.34A4.623,4.623,0,0,1,86.837,80.853Z" transform="translate(1.433 6.178)" fill="none" stroke="#fff" stroke-miterlimit="10" stroke-width="5"/>
    <path id="Path_1649" data-name="Path 1649" d="M14.852,4.451l.093.016a29.243,29.243,0,0,1,23.63,23.967" transform="translate(42.607 13)" fill="none" stroke="#fff" stroke-linecap="round" stroke-miterlimit="10" stroke-width="5"/>
    <path id="Path_1650" data-name="Path 1650" d="M14.054.5A52,52,0,0,1,56.162,43.172" transform="translate(40.318 1.461)" fill="none" stroke="#fff" stroke-linecap="round" stroke-miterlimit="10" stroke-width="5"/>
  </g>
</svg>
