<svg xmlns="http://www.w3.org/2000/svg" width="112" height="112" viewBox="0 0 112 112">
  <g id="Icon_feather-instagram" data-name="Icon feather-instagram" transform="translate(6 6)">
    <path id="Path_228" data-name="Path 228" d="M28,3H78a25,25,0,0,1,25,25V78a25,25,0,0,1-25,25H28A25,25,0,0,1,3,78V28A25,25,0,0,1,28,3Z" transform="translate(-3 -3)" fill="none" stroke="#fff" stroke-linecap="round" stroke-linejoin="round" stroke-width="12"/>
    <path id="Path_229" data-name="Path 229" d="M47.522,27.146A17.825,17.825,0,1,1,32.5,12.128,17.824,17.824,0,0,1,47.522,27.146Z" transform="translate(20.11 20.241)" fill="none" stroke="#fff" stroke-linecap="round" stroke-linejoin="round" stroke-width="12"/>
    <path id="Path_230" data-name="Path 230" d="M26.25,9.75h0" transform="translate(51.25 12.75)" fill="none" stroke="#fff" stroke-linecap="round" stroke-linejoin="round" stroke-width="12"/>
  </g>
</svg>
