<svg xmlns="http://www.w3.org/2000/svg" width="133.194" height="133.189" viewBox="0 0 133.194 133.189">
  <path id="Icon_awesome-linkedin-in" data-name="Icon awesome-linkedin-in" d="M29.814,133.19H2.2V44.266H29.814ZM15.992,32.136A16.068,16.068,0,1,1,31.984,15.993,16.127,16.127,0,0,1,15.992,32.136ZM133.164,133.19H105.609V89.9c0-10.316-.208-23.546-14.357-23.546C76.9,66.356,74.7,77.564,74.7,89.159V133.19H47.111V44.266H73.6V56.4h.386c3.687-6.987,12.692-14.36,26.127-14.36,27.947,0,33.084,18.4,33.084,42.306V133.19Z" transform="translate(0 0)" fill="#fff"/>
</svg>
