<svg xmlns="http://www.w3.org/2000/svg" width="358.314" height="107.857" viewBox="0 0 358.314 107.857">
  <g id="Group_1109" data-name="Group 1109" transform="translate(-25.638 -332.02)">
    <rect id="Rectangle_1018" data-name="Rectangle 1018" width="21.391" height="68.662" transform="translate(269.378 349.422)" fill="#fff"/>
    <g id="Group_1108" data-name="Group 1108" transform="translate(25.638 332.02)">
      <path id="Path_782" data-name="Path 782" d="M162.916,407.048h21.391l-29.2-68.659H133.717Z" transform="translate(165.214 -320.773)" fill="#fff"/>
      <g id="Group_1107" data-name="Group 1107">
        <path id="Path_783" data-name="Path 783" d="M121.85,407.048h21.388l-29.2-68.659H92.648Z" transform="translate(92.692 -320.773)" fill="#fff"/>
        <rect id="Rectangle_1019" data-name="Rectangle 1019" width="21.388" height="68.659" transform="translate(185.339 17.615)" fill="#fff"/>
        <rect id="Rectangle_1020" data-name="Rectangle 1020" width="43.028" height="18.346" transform="translate(116.091 42.773)" fill="#fff"/>
        <rect id="Rectangle_1021" data-name="Rectangle 1021" width="43.031" height="21.38" transform="translate(116.29 64.886)" fill="#fff"/>
        <rect id="Rectangle_1022" data-name="Rectangle 1022" width="43.028" height="21.383" transform="translate(116.092 17.411)" fill="#fff"/>
        <rect id="Rectangle_1023" data-name="Rectangle 1023" width="21.388" height="68.646" transform="translate(58.234 17.621)" fill="#fff"/>
        <path id="Path_784" data-name="Path 784" d="M46.692,355.021v21.294l51.2-8.975V346.045Z" transform="translate(11.541 -307.253)" fill="#fff"/>
        <rect id="Rectangle_1024" data-name="Rectangle 1024" width="53.353" height="21.388" transform="translate(0 17.411)" fill="#fff"/>
        <rect id="Rectangle_1025" data-name="Rectangle 1025" width="21.388" height="68.648" transform="translate(15.973 17.411)" fill="#fff"/>
        <rect id="Rectangle_1026" data-name="Rectangle 1026" width="21.388" height="68.648" transform="translate(88.045 17.411)" fill="#fff"/>
        <rect id="Rectangle_1027" data-name="Rectangle 1027" width="21.388" height="68.856" transform="translate(116.091 17.411)" fill="#fff"/>
        <path id="Path_785" data-name="Path 785" d="M124.594,406.974H103.206l29.2-68.662H153.8Z" transform="translate(111.335 -320.91)" fill="#fff"/>
        <rect id="Rectangle_1028" data-name="Rectangle 1028" width="21.388" height="68.659" transform="translate(271.783 17.615)" fill="#fff"/>
        <path id="Path_786" data-name="Path 786" d="M151.926,439.877H130.538L177.322,332.02h21.391Z" transform="translate(159.6 -332.02)" fill="#fff"/>
      </g>
    </g>
  </g>
</svg>
