<svg xmlns="http://www.w3.org/2000/svg" width="120.424" height="110.302" viewBox="0 0 120.424 110.302">
  <g id="Group_2212" data-name="Group 2212" transform="translate(-253.326 -99.218)">
    <path id="Icon_feather-heart" data-name="Icon feather-heart" d="M49.5,8.439a13.451,13.451,0,0,0-19.028,0l-2.592,2.592L25.292,8.439A13.455,13.455,0,1,0,6.264,27.467L8.856,30.06,27.884,49.087,46.912,30.06,49.5,27.467a13.451,13.451,0,0,0,0-19.028Z" transform="translate(291.457 98.721)" fill="none" stroke="#fff" stroke-linecap="round" stroke-linejoin="round" stroke-width="8"/>
    <path id="Path_803" data-name="Path 803" d="M-4095.86-791.195h22.215l7.609-10.58s4.289-5.684,16.1-5.72,23.986,0,23.986,0,6.08,4.75,6.166,10.171-6.764,5.4-6.764,5.4h-12.2s6.627.065.506,0-2.207-.139.492,0,22.609,0,22.609,0,.063.57,9.33-5.97,7.5-5.153,7.5-5.153h0c.008-.007,4.711-4.411,10.453-3.367.086-.026,6.557,2.1,3.615,10.391l-5.65,4.825-22.684,18.41a19.724,19.724,0,0,1-11.434,4.015c-6.771.1-71.852,0-71.852,0" transform="translate(4353.19 974.251)" fill="none" stroke="#fff" stroke-linecap="round" stroke-linejoin="round" stroke-width="8"/>
  </g>
</svg>
