<svg xmlns="http://www.w3.org/2000/svg" width="551.989" height="506.931" viewBox="0 0 551.989 506.931">
  <g id="Group_2196" data-name="Group 2196" transform="translate(-232.303 -78.218)">
    <path id="Icon_feather-heart" data-name="Icon feather-heart" d="M213.057,22.1a60.081,60.081,0,0,0-84.987,0L116.491,33.684,104.911,22.1a60.095,60.095,0,1,0-84.987,84.987L31.5,118.671l84.987,84.987,84.987-84.987,11.579-11.579a60.081,60.081,0,0,0,0-84.987Z" transform="translate(417.81 98.721)" fill="none" stroke="#075384" stroke-linecap="round" stroke-linejoin="round" stroke-width="50"/>
    <path id="Path_803" data-name="Path 803" d="M-4095.852-734.636h99.211l33.992-47.255s19.156-25.389,71.906-25.549,107.133,0,107.133,0,27.156,21.215,27.531,45.429-30.211,24.134-30.211,24.134h-54.461s29.594.291,2.25,0-9.852-.622,2.2,0,100.984,0,100.984,0,.281,2.545,41.672-26.667,33.492-23.015,33.492-23.015h0c.031-.029,21.047-19.7,46.688-15.036.383-.115,29.281,9.382,16.148,46.408l-25.242,21.551-101.312,82.228s-20.82,17.488-51.07,17.933-320.914,0-320.914,0" transform="translate(4353.182 1194.45)" fill="none" stroke="#075384" stroke-linecap="round" stroke-linejoin="round" stroke-width="50"/>
  </g>
</svg>
