<svg xmlns="http://www.w3.org/2000/svg" width="171.8" height="171.8" viewBox="0 0 171.8 171.8">
  <path id="Icon_awesome-info-circle" data-name="Icon awesome-info-circle" d="M86.463.563a85.9,85.9,0,1,0,85.9,85.9A85.913,85.913,0,0,0,86.463.563Zm0,38.1A14.548,14.548,0,1,1,71.915,53.211,14.548,14.548,0,0,1,86.463,38.663Zm19.4,87.978A4.157,4.157,0,0,1,101.7,130.8H71.222a4.157,4.157,0,0,1-4.156-4.156v-8.313a4.157,4.157,0,0,1,4.156-4.156h4.156V92H71.222a4.157,4.157,0,0,1-4.156-4.156V79.535a4.157,4.157,0,0,1,4.156-4.156H93.39a4.157,4.157,0,0,1,4.156,4.156v34.637H101.7a4.157,4.157,0,0,1,4.156,4.156Z" transform="translate(-0.563 -0.563)" fill="#fff"/>
</svg>
