<svg id="Component_1_78" data-name="Component 1 – 78" xmlns="http://www.w3.org/2000/svg" xmlns:xlink="http://www.w3.org/1999/xlink" width="60.63" height="41.766" viewBox="0 0 60.63 41.766">
  <defs>
    <filter id="Path_128" x="-12" y="-8" width="84.63" height="65.766" filterUnits="userSpaceOnUse">
      <feOffset dy="4" input="SourceAlpha"/>
      <feGaussianBlur stdDeviation="4" result="blur"/>
      <feFlood flood-opacity="0.161"/>
      <feComposite operator="in" in2="blur"/>
      <feComposite in="SourceGraphic"/>
    </filter>
    <clipPath id="clip-path">
      <g transform="matrix(1, 0, 0, 1, 0, 0)" filter="url(#Path_128)">
        <path id="Path_128-2" data-name="Path 128" d="M15.215,0H44.124c8.4,0,16.307.658,16.307,9.155l.2,18.561c0,8.5-4.448,14.049-12.851,14.049L15.215,41.54C6.812,41.54,0,42.994,0,34.5V15.385A15.3,15.3,0,0,1,15.215,0Z" fill="#fff"/>
      </g>
    </clipPath>
  </defs>
  <g id="Mask_Group_19" data-name="Mask Group 19" clip-path="url(#clip-path)">
    <path id="Path_100" data-name="Path 100" d="M663.86-5872.256c-5.044,11-9.453,12.7-30.576,12.961s-21.487,16.93-21.487,16.93H663.86Z" transform="translate(-603.231 5884.132)" fill="#075384" stroke="#075384" stroke-width="1"/>
  </g>
  <path id="Path_102" data-name="Path 102" d="M650.443-5851.152l4.792,4.67-4.792,3.863" transform="translate(-613.381 5878.804)" fill="none" stroke="#fff" stroke-linecap="round" stroke-linejoin="round" stroke-width="2"/>
</svg>
