<svg xmlns="http://www.w3.org/2000/svg" xmlns:xlink="http://www.w3.org/1999/xlink" width="18.251" height="18.252" viewBox="0 0 18.251 18.252">
  <defs>
    <clipPath id="clip-path">
      <rect id="Rectangle_1578" data-name="Rectangle 1578" width="18.251" height="18.252" transform="translate(-2642.166 -377)" fill="#075384" stroke="#075384" stroke-width="1"/>
    </clipPath>
    <clipPath id="clip-path-2">
      <rect id="Rectangle_1577" data-name="Rectangle 1577" width="19.429" height="19.429" fill="#075384" stroke="#075384" stroke-width="1"/>
    </clipPath>
    <clipPath id="clip-path-3">
      <path id="Path_1299" data-name="Path 1299" d="M-2629.531-369.279a4.733,4.733,0,0,0-1.442-3.471,4.733,4.733,0,0,0-3.472-1.442,4.734,4.734,0,0,0-3.471,1.442,4.73,4.73,0,0,0-1.442,3.471,4.732,4.732,0,0,0,1.442,3.473,4.737,4.737,0,0,0,3.471,1.442,4.736,4.736,0,0,0,3.472-1.442,4.735,4.735,0,0,0,1.442-3.473m5.616,9.126a1.346,1.346,0,0,1-.417.987,1.346,1.346,0,0,1-.987.417,1.3,1.3,0,0,1-.987-.417l-3.762-3.751a7.509,7.509,0,0,1-4.377,1.361,7.593,7.593,0,0,1-3-.609,7.731,7.731,0,0,1-2.468-1.646,7.738,7.738,0,0,1-1.645-2.468,7.6,7.6,0,0,1-.608-3,7.6,7.6,0,0,1,.608-3,7.737,7.737,0,0,1,1.645-2.468,7.731,7.731,0,0,1,2.468-1.646,7.593,7.593,0,0,1,3-.609,7.591,7.591,0,0,1,3,.609,7.725,7.725,0,0,1,2.468,1.646,7.73,7.73,0,0,1,1.646,2.468,7.6,7.6,0,0,1,.609,3,7.515,7.515,0,0,1-1.361,4.377l3.762,3.762a1.347,1.347,0,0,1,.406.987" transform="translate(2642.166 377)" fill="#075384" stroke="#075384" stroke-width="1" clip-rule="evenodd"/>
    </clipPath>
    <clipPath id="clip-path-4">
      <rect id="Rectangle_1576" data-name="Rectangle 1576" width="18.781" height="19.429" fill="#075384" stroke="#075384" stroke-width="1"/>
    </clipPath>
  </defs>
  <g id="Group_1725" data-name="Group 1725" transform="translate(2642.166 377)" clip-path="url(#clip-path)">
    <g id="Group_1724" data-name="Group 1724" transform="translate(-2642.813 -377.648)" style="isolation: isolate">
      <g id="Group_1723" data-name="Group 1723">
        <g id="Group_1722" data-name="Group 1722" clip-path="url(#clip-path-2)">
          <g id="Group_1721" data-name="Group 1721" transform="translate(0.647 0.648)">
            <g id="Group_1720" data-name="Group 1720" clip-path="url(#clip-path-3)">
              <g id="Group_1719" data-name="Group 1719" transform="translate(0 -0.648)">
                <g id="Group_1718" data-name="Group 1718" clip-path="url(#clip-path-4)">
                  <rect id="Rectangle_1575" data-name="Rectangle 1575" width="24.728" height="24.728" transform="translate(-3.238 -2.591)" fill="#075384" stroke="#075384" stroke-width="1"/>
                </g>
              </g>
            </g>
          </g>
        </g>
      </g>
    </g>
  </g>
</svg>
