<svg xmlns="http://www.w3.org/2000/svg" xmlns:xlink="http://www.w3.org/1999/xlink" width="37.237" height="37.237" viewBox="0 0 37.237 37.237">
  <defs>
    <clipPath id="clip-path">
      <rect id="Rectangle_1853" data-name="Rectangle 1853" width="25.656" height="25.764" fill="none" stroke="#707070" stroke-width="1.2"/>
    </clipPath>
  </defs>
  <g id="Group_2208" data-name="Group 2208" transform="translate(-1423.663 -736.46)">
    <g id="Group_2201" data-name="Group 2201" transform="translate(1423.663 736.46)">
      <g id="Group_1779" data-name="Group 1779" transform="translate(0 0)">
        <rect id="Rectangle_686" data-name="Rectangle 686" width="37.237" height="37.237" rx="10" fill="#f2b731"/>
      </g>
    </g>
    <g id="Group_2203" data-name="Group 2203" transform="translate(1430.405 742.209)">
      <g id="Group_2155" data-name="Group 2155" transform="translate(0 0)" clip-path="url(#clip-path)">
        <path id="Path_1662" data-name="Path 1662" d="M15.919,23.614H1.694a1.175,1.175,0,0,1-.924-.439,1.208,1.208,0,0,1-.244-1.011,12.757,12.757,0,0,1,12.137-10.1c.1,0,.2.006.306.006s.205,0,.309-.006a12.558,12.558,0,0,1,5.14,1.22m-5.6-1.242H12.23a5.776,5.776,0,1,1,.585,0Z" transform="translate(0.087 0.087)" fill="none" stroke="#fff" stroke-linecap="round" stroke-linejoin="round" stroke-width="1.2"/>
        <line id="Line_61" data-name="Line 61" y2="9.284" transform="translate(20.536 15.893)" fill="none" stroke="#fff" stroke-linecap="round" stroke-linejoin="round" stroke-width="1.2"/>
        <line id="Line_62" data-name="Line 62" x1="9.066" transform="translate(16.003 20.55)" fill="none" stroke="#fff" stroke-linecap="round" stroke-linejoin="round" stroke-width="1.2"/>
      </g>
    </g>
  </g>
</svg>
