<svg xmlns="http://www.w3.org/2000/svg" width="196.472" height="159.569" viewBox="0 0 196.472 159.569">
  <path id="Icon_awesome-twitter" data-name="Icon awesome-twitter" d="M176.276,43.148c.125,1.745.125,3.491.125,5.236,0,53.231-40.516,114.566-114.567,114.566A113.791,113.791,0,0,1,0,144.874a83.3,83.3,0,0,0,9.724.5,80.643,80.643,0,0,0,49.991-17.2,40.338,40.338,0,0,1-37.649-27.925,50.78,50.78,0,0,0,7.6.623,42.587,42.587,0,0,0,10.6-1.371A40.272,40.272,0,0,1,7.978,59.978v-.5a40.553,40.553,0,0,0,18.2,5.111A40.326,40.326,0,0,1,13.713,10.736,114.457,114.457,0,0,0,96.74,52.872a45.455,45.455,0,0,1-1-9.225A40.305,40.305,0,0,1,165.43,16.1a79.279,79.279,0,0,0,25.556-9.724,40.158,40.158,0,0,1-17.7,22.19,80.723,80.723,0,0,0,23.188-6.233,86.556,86.556,0,0,1-20.2,20.819Z" transform="translate(0 -3.381)" fill="#fff"/>
</svg>
