<svg xmlns="http://www.w3.org/2000/svg" width="49.396" height="39.505" viewBox="0 0 49.396 39.505">
  <path id="Icon_awesome-twitter" data-name="Icon awesome-twitter" d="M44.319,13.226c.031.432.031.864.031,1.3,0,13.179-10.186,28.363-28.8,28.363A28.933,28.933,0,0,1,0,38.411a21.266,21.266,0,0,0,2.445.123,20.476,20.476,0,0,0,12.568-4.259,10.123,10.123,0,0,1-9.466-6.913,12.96,12.96,0,0,0,1.912.154,10.864,10.864,0,0,0,2.664-.339,10.01,10.01,0,0,1-8.118-9.784v-.123a10.316,10.316,0,0,0,4.576,1.265,9.923,9.923,0,0,1-4.513-8.3A9.779,9.779,0,0,1,3.448,5.2,28.926,28.926,0,0,0,24.322,15.633a11.088,11.088,0,0,1-.251-2.284A10.043,10.043,0,0,1,34.195,3.381a10.173,10.173,0,0,1,7.4,3.148,20.121,20.121,0,0,0,6.425-2.407,9.971,9.971,0,0,1-4.451,5.494A20.544,20.544,0,0,0,49.4,8.072a21.583,21.583,0,0,1-5.077,5.154Z" transform="translate(0 -3.381)" fill="#fff"/>
</svg>
