<svg xmlns="http://www.w3.org/2000/svg" width="606.66" height="726.836" viewBox="0 0 606.66 726.836">
  <path id="Icon_zocial-youtube" data-name="Icon zocial-youtube" d="M2.681,521.991q0-37.925,4.218-113.876,2.8-37.267,26.712-60.8Q57.5,323.752,94.766,321.654q70.283-3.526,211.585-3.515t211.607,3.515q37.234,2.109,61.134,25.657,23.922,23.526,26.734,60.8,3.46,63.264,3.515,113.876,0,50.644-3.515,113.9-2.834,37.267-26.734,60.826Q555.2,720.241,517.959,722.35q-70.316,3.493-211.607,3.515-141.291,0-211.585-3.515-37.234-2.109-61.134-25.657Q9.71,673.133,6.92,635.867,2.67,559.982,2.681,521.991Zm47.1-99.092H92.657V652.078h41.474V422.9H177.01V384.237H49.778ZM95.469-.972h42.176l26.712,106.846h2.812L192.475-.972h42.176L202.316,103.063q-16.179,51.3-16.168,52.72V266.847H144.675V160.7a116.892,116.892,0,0,0-3.866-17.925c-1.626-5.382-3.756-11.6-6.326-18.628s-4.569-12.894-5.975-17.573Zm81.541,622.1q0,33.741,25.306,33.741,22.505,0,42.879-24.6v21.791H281.77V454.531H245.2V604.959q-14.762,14.762-21.791,14.784c-6.546,0-9.841-4.459-9.841-13.356V454.553H177.01Zm55.532-404.189V114.31q0-23.889,15.465-36.9t39.365-13q23.164,0,37.585,14.059t14.41,37.256V217.641q0,25.306-14.059,39.716t-39.365,14.41q-24.581,0-39.013-15.113Q232.565,241.53,232.543,216.938Zm37.959,4.921q0,16.146,15.465,16.168,16.146,0,16.168-17.573V112.9a13.3,13.3,0,0,0-4.943-10.544,16.739,16.739,0,0,0-11.247-4.218,16.371,16.371,0,0,0-10.9,3.866,12.665,12.665,0,0,0-4.569,10.193V221.859Zm47.1,430.2h37.256V637.272q14.07,17.6,35.169,17.6,33.016,0,33.038-43.582V501.628q0-49.887-35.872-49.887-17.563,0-32.335,18.957V384.237H317.6V652.056ZM354.854,614.8V491.084q7.743-7.743,15.465-7.754,15.454,0,15.465,19.682V607.046q0,16.87-13.356,16.87Q362.576,623.95,354.854,614.8Zm16.168-378.883V69.322h36.553V220.453q0,13.345,9.841,13.356,9.127,0,21.791-14.762V69.322H475.76V266.847H439.207V245.056q-20.4,24.614-42.9,24.6Q371.033,269.659,371.022,235.918Zm80.135,360.607q0,26.722,13.356,43.933t40.068,17.222q54.829,0,54.807-61.155V581.762H521.473c0,.945.088,4.108.351,9.49a55.906,55.906,0,0,1-.351,11.6c-.461,2.328-1.076,5.514-1.757,9.512-.725,3.976-2.241,6.788-4.591,8.413-2.328,1.647-5.623,2.46-9.819,2.46q-16.179,0-16.168-28.118V557.885H559.41V507.251q0-26.723-13-42.176c-8.677-10.3-21.879-15.443-39.716-15.443q-25.339,0-40.419,16.146-15.091,16.178-15.113,41.473v89.273Zm37.959-69.591V505.845q0-21.78,16.168-21.791,16.146,0,16.168,21.791v21.088Z" transform="translate(-2.681 0.972)" fill="#fff"/>
</svg>
