<svg xmlns="http://www.w3.org/2000/svg" xmlns:xlink="http://www.w3.org/1999/xlink" width="192.076" height="134.593" viewBox="0 0 192.076 134.593">
  <defs>
    <clipPath id="clip-path">
      <rect id="Rectangle_877" data-name="Rectangle 877" width="192.076" height="134.593" rx="10" transform="translate(360 3815.002)" fill="#fff"/>
    </clipPath>
  </defs>
  <g id="Group_2239" data-name="Group 2239" transform="translate(-133 -4073.457)">
    <path id="Icon_zocial-youtube" data-name="Icon zocial-youtube" d="M2.681,50.039q0-3.7.411-11.108A8.962,8.962,0,0,1,5.7,33a8.892,8.892,0,0,1,5.965-2.5q6.856-.344,20.638-.343t20.641.343a8.734,8.734,0,0,1,8.571,8.434q.337,6.171.343,11.108t-.343,11.11a8.73,8.73,0,0,1-8.571,8.434q-6.859.341-20.641.343t-20.638-.343A8.891,8.891,0,0,1,5.7,67.08a8.957,8.957,0,0,1-2.606-5.933Q2.68,53.745,2.681,50.039Zm4.594-9.666h4.183V62.728H15.5V40.373h4.183V36.6H7.275ZM11.732-.972h4.114L18.451,9.45h.274L21.194-.972h4.114L22.154,9.176q-1.578,5-1.577,5.142V25.152H16.531V14.8a11.4,11.4,0,0,0-.377-1.748c-.159-.525-.366-1.131-.617-1.817s-.446-1.258-.583-1.714Zm7.954,60.681Q19.685,63,22.154,63q2.2,0,4.183-2.4v2.126H29.9V43.459H26.336V58.132q-1.44,1.44-2.126,1.442c-.639,0-.96-.435-.96-1.3V43.461H19.685V59.709ZM25.1,20.283V10.273a4.446,4.446,0,0,1,1.508-3.6A5.758,5.758,0,0,1,30.45,5.4a5.024,5.024,0,0,1,3.666,1.371,4.842,4.842,0,0,1,1.406,3.634v9.942a5.307,5.307,0,0,1-1.371,3.874,5.122,5.122,0,0,1-3.84,1.406,5.008,5.008,0,0,1-3.805-1.474A5.392,5.392,0,0,1,25.1,20.283Zm3.7.48q0,1.575,1.508,1.577,1.575,0,1.577-1.714V10.136a1.3,1.3,0,0,0-.482-1.028,1.633,1.633,0,0,0-1.1-.411,1.6,1.6,0,0,0-1.063.377,1.235,1.235,0,0,0-.446.994v10.7ZM33.4,62.726h3.634V61.284A4.221,4.221,0,0,0,40.463,63q3.22,0,3.223-4.251v-10.7q0-4.866-3.5-4.866a4.046,4.046,0,0,0-3.154,1.849V36.6H33.4V62.726Zm3.634-3.634V47.024a2.178,2.178,0,0,1,1.508-.756q1.507,0,1.508,1.92V58.336q0,1.646-1.3,1.646A2.2,2.2,0,0,1,37.032,59.092ZM38.61,22.135V5.885h3.565V20.626q0,1.3.96,1.3.89,0,2.126-1.44V5.885h3.565V25.152H45.26V23.026q-1.989,2.4-4.185,2.4Q38.611,25.426,38.61,22.135Zm7.817,35.174a6.788,6.788,0,0,0,1.3,4.285,4.641,4.641,0,0,0,3.908,1.68q5.348,0,5.346-5.965v-1.44h-3.7c0,.092.009.4.034.926a5.454,5.454,0,0,1-.034,1.131c-.045.227-.1.538-.171.928a1.206,1.206,0,0,1-.448.821,1.644,1.644,0,0,1-.958.24q-1.578,0-1.577-2.743V53.54h6.854V48.6a6.19,6.19,0,0,0-1.268-4.114,4.776,4.776,0,0,0-3.874-1.506A5.137,5.137,0,0,0,47.9,44.556,5.7,5.7,0,0,0,46.426,48.6v8.708Zm3.7-6.788V48.464q0-2.124,1.577-2.126t1.577,2.126v2.057Z" transform="translate(196.77 4106.275)" fill="#075384"/>
    <g id="Mask_Group_289" data-name="Mask Group 289" transform="translate(-227 258.455)" clip-path="url(#clip-path)">
      <g id="Group_969" data-name="Group 969">
        <g id="Group_968" data-name="Group 968" transform="translate(227 160.002)">
          <path id="Path_721" data-name="Path 721" d="M-63.209,16.578S-19.941,16.726-5.184,28C14.242,43.329,24.339,40.627,42.524,34.82c.229-.089.683-.272,1.135-.46h0c18.981-8.557,25.391.668,25.391.668a103.208,103.208,0,0,1,12.782,18.89C87.089,64.263,96.955,68.4,106.406,60.4c.242-.157,8.85-10.671,9.161-10.884,12.423-7.612,1.4-13.136,27.177-13.041l.823.04c8.358-.075,18.842,4.795,18.842,4.795s13.173,7.006,17.664,2.521c.054-.054.053-.068.167-.184.029-1.582,0-2.337,0-2.337V0Z" transform="matrix(-0.996, -0.087, 0.087, -0.996, 237.47, 3807.182)" fill="#febe10"/>
          <path id="Path_722" data-name="Path 722" d="M0,.465S5.161,44.112,41.419,35.48l1.266-.427.1-.026h0c20.707-7.286,24.771,1.763,24.771,1.763s3.733,5.137,2.618,16.739S81.9,73.749,97.011,63.951c.242-.157.48-.316.791-.529,12.423-7.612,15.513-10.9,41.479,1.557.26.012,3.019-17.724,3.324-17.709,8.358-.075,19.8-5.961,19.8-5.961s13.173,7.006,17.664,2.521c.054-.054.053-.068.167-.184.029-1.582,0-2.337,0-2.337L149.727-18.122Z" transform="translate(204.778 3630.549) rotate(9)" fill="#ee2346"/>
        </g>
        <path id="Path_723" data-name="Path 723" d="M2523.847-2257.841s66.531-3.865,65.286,23.762c0,.144-.063.962-.063.962s.047,4.666-12.1,19.137-4.458,28.7,10.717,39.967,15.1,30.585-2.124,48.011-18.014,25.083-12.362,48.544-23.9,24.248-23.9,24.248Z" transform="translate(-2328.672 1867.152) rotate(76)" fill="rgba(238,35,70,0.25)"/>
      </g>
    </g>
  </g>
</svg>
