<svg xmlns="http://www.w3.org/2000/svg" xmlns:xlink="http://www.w3.org/1999/xlink" width="203.434" height="33.887" viewBox="0 0 203.434 33.887">
  <defs>
    <clipPath id="clip-path">
      <rect id="Rectangle_1922" data-name="Rectangle 1922" width="203.434" height="33.887" transform="translate(0 0)" fill="none" stroke="#9a9a9a" stroke-width="1"/>
    </clipPath>
  </defs>
  <g id="Group_2257" data-name="Group 2257" clip-path="url(#clip-path)">
    <path id="Path_1728" data-name="Path 1728" d="M124.312,1.13l5.243,10.624,11.724,1.7L132.8,21.727l2,11.677L124.312,27.89,113.826,33.4l2-11.677-8.484-8.269,11.724-1.7Z" transform="translate(-22.595 -0.238)" fill="none" stroke="#9a9a9a" stroke-width="1"/>
    <path id="Path_1729" data-name="Path 1729" d="M177.447,1.13l5.243,10.624,11.724,1.7-8.484,8.269,2,11.677L177.447,27.89,166.961,33.4l2-11.677-8.484-8.269,11.724-1.7Z" transform="translate(-33.78 -0.238)" fill="none" stroke="#9a9a9a" stroke-width="1"/>
    <path id="Path_1730" data-name="Path 1730" d="M230.582,1.13l5.243,10.624,11.724,1.7-8.484,8.269,2,11.677L230.582,27.89,220.1,33.4l2-11.677-8.484-8.269,11.724-1.7Z" transform="translate(-44.964 -0.238)" fill="none" stroke="#9a9a9a" stroke-width="1"/>
    <path id="Path_1972" data-name="Path 1972" d="M71.177,1.13,76.42,11.753l11.724,1.7L79.66,21.727l2,11.677L71.177,27.89,60.69,33.4l2-11.677-8.484-8.269,11.724-1.7Z" transform="translate(-11.411 -0.237)" fill="none" stroke="#9a9a9a" stroke-width="1"/>
  </g>
</svg>
