<svg xmlns="http://www.w3.org/2000/svg" width="15.482" height="17.518" viewBox="0 0 15.482 17.518">
  <g id="Group_1669" data-name="Group 1669" transform="translate(-30.314 0.555)">
    <g id="Group_1668" data-name="Group 1668" transform="translate(30.814 0)">
      <path id="Path_1242" data-name="Path 1242" d="M45.111,6.438,38.251.15a.572.572,0,0,0-.785.011L30.988,6.45a.572.572,0,0,0-.174.41v9.032a.572.572,0,0,0,.572.572H36.15a.572.572,0,0,0,.572-.572V11.7h2.668v4.192a.572.572,0,0,0,.572.572h4.764a.572.572,0,0,0,.572-.572V6.86A.572.572,0,0,0,45.111,6.438Zm-.958,8.882H40.532V11.128a.572.572,0,0,0-.572-.572H36.15a.572.572,0,0,0-.572.572V15.32H31.957V7.1l5.918-5.744,6.277,5.754V15.32Z" transform="translate(-30.814 0)" fill="#075384" stroke="#075384" stroke-width="1"/>
    </g>
  </g>
</svg>
